# xmcd
#
# Track frame offsets:
#	150
#	18947
#	32510
#	48260
#	65135
#	84012
#	101845
#	119810
#	138577
#	158797
#	175842
#	194790
#	213252
#	226097
#	250470
#	271622
#	289182
#
# Disc length: 4106 seconds
#
# Revision: 1
# Processed by: cddbd v1.5.2PL0 Copyright (c) Steve Scherf et al.
# Submitted via: CDRider 2.1
#
DISCID=f1100811
DTITLE=Various Artist - Can You Hear the Future in the Music, Disc 1
DYEAR=1900
DGENRE=R&B
TTITLE0=Easy Come, Easy Go
TTITLE1=Funkdafied
TTITLE2=Funky Y-2-C
TTITLE3=We Deal Wid Anyting
TTITLE4=Her Comes the Hotstepper
TTITLE5=Vineyard Party
TTITLE6=Six Street
TTITLE7=Love Won't Let Me Wait
TTITLE8=Choral Response
TTITLE9=Breakfast @ Denny's
TTITLE10=The Way You Make Me Feel
TTITLE11=Why Goodbye
TTITLE12=It Ain't Too Hard to Tell
TTITLE13=Nappy Heads
TTITLE14=Reality
TTITLE15=Play Me Out
TTITLE16=7 Seconds
EXTD=
EXTT0=
EXTT1=
EXTT2=
EXTT3=
EXTT4=
EXTT5=
EXTT6=
EXTT7=
EXTT8=
EXTT9=
EXTT10=
EXTT11=
EXTT12=
EXTT13=
EXTT14=
EXTT15=
EXTT16=
PLAYORDER=
